<?xml version="1.0" encoding="UTF-8"?>
<svg version="1.1" xmlns="http://www.w3.org/2000/svg" width="512" height="512">
<path d="M0 0 C0.77644814 2.7068271 1.54614589 5.4153124 2.3125 8.125 C2.52583984 8.86621094 2.73917969 9.60742188 2.95898438 10.37109375 C4.96888414 17.5107377 6.49773011 24.73870241 8 32 C9.80186768 31.27296875 9.80186768 31.27296875 11.64013672 30.53125 C16.08535712 28.73871244 20.53238461 26.95069708 24.97998047 25.1640625 C26.90691151 24.38926007 28.8333462 23.61322205 30.75927734 22.8359375 C33.52312612 21.72072523 36.28871296 20.60992758 39.0546875 19.5 C40.3516304 18.9750293 40.3516304 18.9750293 41.67477417 18.43945312 C42.87579269 17.95895508 42.87579269 17.95895508 44.10107422 17.46875 C44.8072287 17.18451172 45.51338318 16.90027344 46.24093628 16.60742188 C48 16 48 16 50 16 C50.33 25.9 50.66 35.8 51 46 C53.330625 47.134375 55.66125 48.26875 58.0625 49.4375 C99.57104336 70.06373792 131.07216031 103.92574613 147.29296875 147.6015625 C148 150 148 150 148 153 C148.77601563 152.72285156 149.55203125 152.44570312 150.3515625 152.16015625 C168.12362709 146.20078853 185.99238322 146.79989905 203 155 C219.34322168 163.9105331 231.29185942 177.11907771 237 195 C241.75968928 211.96733369 240.24899006 231.03177039 232.3125 246.75 C223.07751282 262.32680795 209.84474046 273.71906051 192.4375 279.1015625 C189.63348621 279.80917919 186.83943465 280.45395488 184 281 C184.10957031 281.54785156 184.21914063 282.09570312 184.33203125 282.66015625 C184.67548083 284.37740414 185.0178024 286.09487778 185.359375 287.8125 C185.82027496 290.10575836 186.29010264 292.39722902 186.765625 294.6875 C187.02859375 295.96625 187.2915625 297.245 187.5625 298.5625 C187.93568359 300.35880859 187.93568359 300.35880859 188.31640625 302.19140625 C194.84889657 338.58670944 185.99725778 377.36635701 165.265625 407.84765625 C164.51796875 408.88792969 163.7703125 409.92820312 163 411 C162.23171875 412.07121094 161.4634375 413.14242188 160.671875 414.24609375 C156.24497371 420.26123822 151.43437983 425.88397255 146.375 431.375 C145.60397949 432.21321289 145.60397949 432.21321289 144.81738281 433.06835938 C110.12519317 469.97681161 60.1648591 488.52319221 11 495 C10.22422607 495.1045752 9.44845215 495.20915039 8.64916992 495.31689453 C0.44488813 496.28495649 -7.81267646 496.2436842 -16.0625 496.25 C-17.25460587 496.25101212 -17.25460587 496.25101212 -18.47079468 496.25204468 C-79.11228769 496.17069772 -136.75113718 474.67669652 -180.16210938 431.86083984 C-208.84045217 402.82439872 -224.38807449 364.07338991 -224.30688477 323.43969727 C-224.08659947 310.78699204 -222.3258469 298.09566313 -218.55078125 285.99609375 C-217.86700528 283.86312675 -217.86700528 283.86312675 -218 281 C-218.95519531 280.78085937 -219.91039062 280.56171875 -220.89453125 280.3359375 C-238.32148336 276.14667927 -252.92940004 267.22299994 -263 252 C-273.14969717 234.62094106 -276.19392836 215.53179681 -271.375 195.8125 C-265.99135419 178.7236452 -254.70839349 164.59524427 -238.86791992 156.10888672 C-222.72922168 147.87258555 -204.86687456 145.60606003 -187.27734375 150.8046875 C-185.49069913 151.46640773 -183.73810036 152.21962841 -182 153 C-181.90976563 152.18660156 -181.81953125 151.37320313 -181.7265625 150.53515625 C-180.83166713 146.18096104 -179.21599258 142.46609047 -177.375 138.4375 C-176.83540649 137.2460437 -176.83540649 137.2460437 -176.28491211 136.03051758 C-157.48563407 94.99322058 -124.21355089 61.14256271 -81.73388672 44.73876953 C-76.56882895 42.90398573 -71.36449458 41.22918006 -66.125 39.62109375 C-58.47981344 37.23578446 -53.19849298 34.70598771 -47.5 29 C-36.3046887 18.26044301 -16.470786 0 0 0 Z " fill="#AF6E5A" transform="translate(273,8)"/>
<path d="M0 0 C1.62055014 1.22868545 3.22603597 2.47760753 4.8125 3.75 C10.77834581 8.50770857 15.79167132 10.32360202 23.375 10.3984375 C30.13168734 9.37286889 34.94478961 5.77493133 40.1875 1.6875 C46.47700743 -3.04868733 52.70477777 -6.94641438 60 -10 C60.88558594 -10.41121094 61.77117187 -10.82242188 62.68359375 -11.24609375 C77.76708572 -17.16078735 97.76402889 -16.06885525 112.75390625 -10.421875 C113.82511719 -9.95265625 114.89632812 -9.4834375 116 -9 C116.95777344 -8.59265625 117.91554688 -8.1853125 118.90234375 -7.765625 C124.46923182 -5.18727684 129.28619607 -1.90519819 134 2 C134.75410156 2.62003906 135.50820313 3.24007812 136.28515625 3.87890625 C149.20657734 14.90202174 159.82995688 32.33850224 161.20654297 49.58813477 C161.30426968 52.45790753 161.32880796 55.31611721 161.3125 58.1875 C161.30758545 59.20690674 161.3026709 60.22631348 161.29760742 61.27661133 C161.05087723 77.17236182 156.37936229 91.10053806 147 104 C137.79184807 116.72256386 133.9254215 128.12080546 136 144 C137.31651941 149.28948243 139.26707475 154.31972283 141.2734375 159.37890625 C148.54955338 177.99847111 145.62125898 199.24011734 137.80566406 217.21044922 C133.94478795 225.78627404 129.09001372 232.85998391 123 240 C122.43023437 240.72703125 121.86046875 241.4540625 121.2734375 242.203125 C101.68670665 266.1903989 67.97634831 278.92761118 38 282 C33.08302586 282.28165827 28.16502388 282.2894865 23.24145508 282.26074219 C21.06758647 282.25002508 18.89454692 282.26070922 16.72070312 282.2734375 C4.36533211 282.28687057 -7.88297308 281.31305863 -19.8125 277.875 C-20.55330811 277.66399658 -21.29411621 277.45299316 -22.05737305 277.2355957 C-39.87975633 271.90934464 -55.83208139 263.01830337 -70 251 C-70.68578125 250.44828125 -71.3715625 249.8965625 -72.078125 249.328125 C-88.66898662 235.6112709 -99.87641138 215.25608083 -103 194 C-103.29584932 190.61881782 -103.38139393 187.26825626 -103.375 183.875 C-103.37338867 182.9670166 -103.37177734 182.0590332 -103.37011719 181.12353516 C-103.16272017 169.54793519 -100.0788919 159.07608111 -95.83203125 148.33203125 C-92.30780024 138.45425702 -92.78610752 126.56838743 -97 117 C-99.72834573 111.74173369 -103.01220184 106.96393156 -106.5 102.1875 C-115.59955229 89.34344168 -119.54035265 75.65158048 -119.375 60.0625 C-119.38660156 58.97259766 -119.39820312 57.88269531 -119.41015625 56.75976562 C-119.37224025 46.12432857 -117.28750943 36.39475713 -112.375 26.9375 C-112.02872559 26.26195068 -111.68245117 25.58640137 -111.32568359 24.89038086 C-101.7431898 6.85085396 -85.15959019 -6.45501816 -65.7512207 -12.61450195 C-43.0193374 -18.64772356 -19.20153307 -12.65739206 0 0 Z " fill="#F9EAC7" transform="translate(235,188)"/>
<path d="M0 0 C0.79298919 2.832969 1.58442272 5.66635785 2.375 8.5 C2.59671875 9.29148437 2.8184375 10.08296875 3.046875 10.8984375 C3.48995365 12.48830796 3.92842615 14.07946922 4.36230469 15.671875 C4.77701564 17.18591926 5.20411405 18.69664342 5.64550781 20.203125 C7.63882298 27.33215808 7.63882298 27.33215808 6 31 C3.515625 32.703125 3.515625 32.703125 0.25 34.25 C-17.20359082 43.06282077 -33.49018783 55.96741906 -46 71 C-46.79535156 71.93070312 -47.59070313 72.86140625 -48.41015625 73.8203125 C-64.97178386 93.27660267 -78.33255407 116.05176679 -86.375 140.375 C-86.61323486 141.09107422 -86.85146973 141.80714844 -87.09692383 142.54492188 C-88.27671842 146.24551199 -89.20260938 149.8942951 -89.90625 153.71484375 C-90.80724637 158.22692006 -91.75817666 161.94271237 -94 166 C-98.49562136 168.56224431 -102.86608059 169.47898493 -107.89550781 170.49121094 C-122.93396148 174.12695774 -136.54772513 186.24225645 -144.90625 198.8828125 C-155.6699688 216.71592289 -159.61808645 237.14664966 -155.125 257.796875 C-151.8327001 269.96407029 -145.29605134 280.45985229 -137.796875 290.4296875 C-131.19790605 299.86908222 -130.14109084 309.69299034 -131 321 C-132.00482818 325.46185365 -133.46972321 329.69447546 -135 334 C-135.74115522 336.3086856 -136.47054529 338.62118478 -137.1875 340.9375 C-137.67283203 342.46697266 -137.67283203 342.46697266 -138.16796875 344.02734375 C-143.80057668 364.15135612 -139.41940964 385.78616525 -130 404 C-128.3001449 406.60403334 -126.54190841 409.08494339 -124.61328125 411.5234375 C-122.45916647 414.8302384 -121.29996705 418.29135935 -120 422 C-110.80083658 446.66747959 -97.20868478 467.26160527 -80 487 C-83.50199291 488.16733097 -84.41468637 487.78839721 -87.83984375 486.6640625 C-89.29608154 486.18743164 -89.29608154 486.18743164 -90.78173828 485.70117188 C-91.82313965 485.34603516 -92.86454102 484.99089844 -93.9375 484.625 C-95.00983887 484.26212891 -96.08217773 483.89925781 -97.18701172 483.52539062 C-145.99821677 466.63170333 -188.14942853 433.94734718 -211.01123047 387.11425781 C-225.54716185 356.0324885 -228.81042423 318.87956483 -218.55078125 285.99609375 C-217.86700528 283.86312675 -217.86700528 283.86312675 -218 281 C-218.95519531 280.78085937 -219.91039062 280.56171875 -220.89453125 280.3359375 C-238.32148336 276.14667927 -252.92940004 267.22299994 -263 252 C-273.14969717 234.62094106 -276.19392836 215.53179681 -271.375 195.8125 C-265.99135419 178.7236452 -254.70839349 164.59524427 -238.86791992 156.10888672 C-222.72922168 147.87258555 -204.86687456 145.60606003 -187.27734375 150.8046875 C-185.49069913 151.46640773 -183.73810036 152.21962841 -182 153 C-181.90976563 152.18660156 -181.81953125 151.37320313 -181.7265625 150.53515625 C-180.83166713 146.18096104 -179.21599258 142.46609047 -177.375 138.4375 C-176.83540649 137.2460437 -176.83540649 137.2460437 -176.28491211 136.03051758 C-157.48563407 94.99322058 -124.21355089 61.14256271 -81.73388672 44.73876953 C-76.56882895 42.90398573 -71.36449458 41.22918006 -66.125 39.62109375 C-58.47981344 37.23578446 -53.19849298 34.70598771 -47.5 29 C-36.3046887 18.26044301 -16.470786 0 0 0 Z " fill="#965A50" transform="translate(273,8)"/>
<path d="M0 0 C-0.66 0 -1.32 0 -2 0 C-2.04898438 0.62003906 -2.09796875 1.24007812 -2.1484375 1.87890625 C-2.61322172 7.38419524 -3.23303587 12.84072604 -4 18.3125 C-4.99364943 25.53499663 -5.57390391 32.72272726 -6 40 C-5.10539062 39.94199219 -4.21078125 39.88398438 -3.2890625 39.82421875 C5.74164291 39.48725213 12.71334972 40.23690687 19.6171875 46.45703125 C26.16699591 53.80134304 27.3166286 61.17506622 27.2109375 70.61328125 C26.69471411 78.90153459 24.09363683 86.18978814 18 92 C11.12089121 97.03977489 4.3553148 98.04988249 -4 97 C-7.42365225 96.21130524 -10.7078044 95.22364792 -14 94 C-22.75975801 110.47114073 -29.3716449 127.45696726 -34.09814453 145.51245117 C-34.43241455 146.76699097 -34.43241455 146.76699097 -34.7734375 148.046875 C-34.96341309 148.78776367 -35.15338867 149.52865234 -35.34912109 150.29199219 C-36 152 -36 152 -38 153 C-38.06316406 151.86304688 -38.12632812 150.72609375 -38.19140625 149.5546875 C-39.27233986 134.63747904 -43.99521592 124.76467143 -53.078125 112.77734375 C-61.4094915 100.73750314 -64.52793412 87.48078902 -64.375 73.0625 C-64.38660156 71.97259766 -64.39820312 70.88269531 -64.41015625 69.75976562 C-64.37224025 59.12432857 -62.28750943 49.39475713 -57.375 39.9375 C-57.02872559 39.26195068 -56.68245117 38.58640137 -56.32568359 37.89038086 C-46.7378626 19.84082523 -30.67339034 7.10698312 -11.375 0.9375 C-10.70001465 0.72125977 -10.0250293 0.50501953 -9.32958984 0.28222656 C-5.9165292 -0.72054878 -3.37076948 -1.36028514 0 0 Z " fill="#F4DBB3" transform="translate(180,175)"/>
<path d="M0 0 C1.26606079 -0.00571014 2.53212158 -0.01142029 3.83654785 -0.01730347 C5.24757375 -0.01854889 6.65859977 -0.01967397 8.06962585 -0.02069092 C9.54947534 -0.02531813 11.02932364 -0.03034265 12.50917053 -0.03573608 C16.53611844 -0.04887218 20.56304966 -0.05530749 24.59001565 -0.05974674 C27.10505858 -0.06267575 29.62009693 -0.06678025 32.13513756 -0.07125092 C40.00161955 -0.08492954 47.86809109 -0.09459419 55.73458415 -0.09845281 C64.81979106 -0.10293347 73.9048475 -0.12048014 82.99000865 -0.1494534 C90.00918045 -0.17106205 97.0283099 -0.18115666 104.04751462 -0.18249393 C108.24123137 -0.18354262 112.43480676 -0.1894639 116.62848854 -0.20731354 C120.57407529 -0.22377999 124.5194142 -0.22595676 128.46502304 -0.21717453 C129.9126203 -0.21640336 131.36023079 -0.22075741 132.80779457 -0.23063278 C134.7852341 -0.24333097 136.76277296 -0.23569151 138.74023438 -0.22705078 C139.8465537 -0.22851734 140.95287302 -0.2299839 142.09271717 -0.2314949 C145.48818567 0.19402823 147.33169513 1.10349927 150.06059265 3.14044189 C152.56148021 6.89177323 152.36571804 8.6837619 152.06059265 13.14044189 C147.60010213 31.21924419 137.92475809 46.74768813 123.06059265 58.14044189 C121.08546284 59.18870819 119.09024848 60.20209376 117.06059265 61.14044189 C116.86465515 60.54618408 116.66871765 59.95192627 116.46684265 59.33966064 C111.81596964 46.44952554 103.78624091 36.82834429 91.3457489 30.83184814 C88.93577737 29.84249141 86.5335509 28.95801565 84.06059265 28.14044189 C83.13117859 27.78466064 82.20176453 27.42887939 81.2441864 27.06231689 C69.72851203 23.72771671 57.71725045 26.17072585 47.31059265 31.56622314 C35.36299326 38.4467603 28.04639971 47.31979518 23.06059265 60.14044189 C14.1884137 58.67531143 6.20497426 49.01341853 1.06059265 42.14044189 C-5.86879606 31.7140991 -12.90110188 18.99922849 -11.93940735 6.14044189 C-8.40834984 0.72615372 -6.26166803 0.01685355 0 0 Z " fill="#4D414F" transform="translate(185.9394073486328,362.85955810546875)"/>
<path d="M0 0 C13.41973731 13.93860237 18.52290894 30.73257281 18.42211914 49.70825195 C17.93045242 68.60598639 10.28083337 84.13909613 -3.30859375 97.22265625 C-13.82117057 106.18165029 -25.50852264 110.84710468 -39 113 C-41.00765072 108.67016662 -43.00676996 104.33649073 -45 100 C-45.42539062 99.07703125 -45.85078125 98.1540625 -46.2890625 97.203125 C-46.64742188 96.41421875 -47.00578125 95.6253125 -47.375 94.8125 C-47.69210937 94.11769531 -48.00921875 93.42289062 -48.3359375 92.70703125 C-49 91 -49 91 -49 89 C-47.19015625 88.54560547 -47.19015625 88.54560547 -45.34375 88.08203125 C-33.45015699 85.14902387 -33.45015699 85.14902387 -23 79 C-22.13375 78.4225 -21.2675 77.845 -20.375 77.25 C-16.85619735 73.91639749 -14.42509398 70.17913456 -12 66 C-11.58105469 65.28199219 -11.16210938 64.56398438 -10.73046875 63.82421875 C-6.41246593 54.98985962 -6.51845275 43.89341142 -8.8828125 34.48828125 C-12.91890874 24.05056216 -19.18553501 16.36371924 -29 11 C-29.71414063 10.58621094 -30.42828125 10.17242187 -31.1640625 9.74609375 C-40.57545738 5.10507944 -53.22168754 5.55157791 -63.125 8.5 C-64.42667421 8.97333607 -65.72395918 9.4613697 -67 10 C-69.27628663 1.71254868 -71.48565898 -6.53164559 -73 -15 C-46.35916946 -23.97770935 -20.83854416 -19.50639978 0 0 Z " fill="#965A50" transform="translate(494,176)"/>
<path d="M0 0 C7.64069734 4.50860992 12.66048993 10.05058968 16.9921875 17.765625 C17.40726562 18.47976562 17.82234375 19.19390625 18.25 19.9296875 C22.58319936 28.74759669 22.8300724 40.43210302 19.88671875 49.7578125 C15.60148419 60.44217749 9.33330911 68.48571699 -1.0078125 73.765625 C-8.40574587 76.72112692 -15.0506728 78.3050921 -23.0078125 77.765625 C-32.64921082 57.69743355 -36.7722652 40.2167648 -37.61328125 17.9765625 C-37.86246423 11.87587586 -38.32991406 5.83380323 -39.0078125 -0.234375 C-26.5101488 -6.83410944 -12.50433132 -6.17996975 0 0 Z " fill="#EAC89F" transform="translate(466.0078125,186.234375)"/>
<path d="M0 0 C-0.14953125 1.16789063 -0.2990625 2.33578125 -0.453125 3.5390625 C-0.924589 7.76080829 -1.16834087 11.96756447 -1.359375 16.2109375 C-2.27201898 35.93947926 -4.28661776 53.95713778 -13 72 C-13.26941406 72.67933594 -13.53882813 73.35867188 -13.81640625 74.05859375 C-14.625 75.75 -14.625 75.75 -17 78 C-25.22522932 79.90791402 -32.85163496 76.93207797 -40 73 C-46.99822523 68.45954358 -52.0403146 63.337792 -56 56 C-56.4125 55.28714844 -56.825 54.57429688 -57.25 53.83984375 C-61.60679437 45.02036069 -61.44757186 33.93704589 -59.15234375 24.5234375 C-55.07348063 13.82160682 -48.06787736 5.43291864 -38 0 C-37.28714844 -0.4125 -36.57429688 -0.825 -35.83984375 -1.25 C-24.89021309 -6.65907998 -10.58563972 -5.58402007 0 0 Z " fill="#EAC79F" transform="translate(85,186)"/>
<path d="M0 0 C7.47135386 5.90315365 14.01460007 13.99254398 16.9375 23.1875 C16.9765625 25.76171875 16.9765625 25.76171875 15.9375 28.1875 C13.68130151 29.67411846 11.76500349 30.7059795 9.3125 31.75 C8.31283203 32.19496826 8.31283203 32.19496826 7.29296875 32.64892578 C-15.03532168 42.23689477 -40.34528615 43.30825703 -63 34.3125 C-68.5732045 32.00264873 -73.91665922 29.33915316 -79.0625 26.1875 C-78.0725 25.6925 -78.0725 25.6925 -77.0625 25.1875 C-76.44327969 23.43710139 -76.44327969 23.43710139 -75.9375 21.3125 C-72.17577058 9.54071987 -62.76286352 0.6135014 -52.0625 -5.125 C-50.74107116 -5.71492359 -49.40701583 -6.27727928 -48.0625 -6.8125 C-47.3509375 -7.11027344 -46.639375 -7.40804688 -45.90625 -7.71484375 C-29.84870431 -13.52232277 -13.67295066 -9.32076828 0 0 Z " fill="#E4646E" transform="translate(286.0625,397.8125)"/>
<path d="M0 0 C5.87991674 4.18737996 9.68299962 10.40381616 11.08984375 17.48828125 C11.84688697 28.23247155 11.00288978 38.16824024 3.9375 46.7265625 C-1.26362817 51.68577773 -6.90088444 53.7720912 -14.03515625 53.98828125 C-20.62053114 53.67549708 -25.55093169 52.52579337 -30.66015625 48.11328125 C-31.40265625 47.24703125 -32.14515625 46.38078125 -32.91015625 45.48828125 C-33.63203125 44.68390625 -34.35390625 43.87953125 -35.09765625 43.05078125 C-39.10051877 37.39156183 -39.24878496 31.7345054 -39.22265625 25.05078125 C-39.23876953 24.23029297 -39.25488281 23.40980469 -39.27148438 22.56445312 C-39.27822625 14.11687794 -36.62804689 8.4822286 -30.84375 2.2890625 C-22.15017178 -5.80738106 -10.08708905 -5.80375464 0 0 Z " fill="#4C404F" transform="translate(195.91015625,218.51171875)"/>
<path d="M0 0 C6.25626391 3.7458723 11.18204156 9.35862469 13.5 16.3125 C13.77879899 19.51580421 13.77751327 22.72338553 13.8125 25.9375 C13.84150391 26.80246094 13.87050781 27.66742188 13.90039062 28.55859375 C13.97513658 36.22867901 12.10740739 42.22478072 7.125 48.125 C-0.3907267 54.38810558 -5.51832085 55.7566612 -15.171875 55.6484375 C-21.13772698 55.04625056 -25.24221052 52.7259991 -29.3125 48.375 C-34.68481388 41.55629392 -35.84392641 36.04169701 -35.8125 27.5 C-35.82861328 26.63568359 -35.84472656 25.77136719 -35.86132812 24.88085938 C-35.86658292 17.91824978 -34.56696826 12.60433833 -30.8125 6.625 C-22.78254699 -1.40495301 -10.74978619 -5.09741296 0 0 Z " fill="#4C404F" transform="translate(341.5,216.6875)"/>
<path d="M0 0 C6.00955848 -0.50079654 9.93740862 0.72106423 15 4 C19.50156235 7.88771294 23.10418981 12.31256942 25 18 C25.08106686 19.55421729 25.10756898 21.11167027 25.09765625 22.66796875 C25.09443359 23.56064453 25.09121094 24.45332031 25.08789062 25.37304688 C25.07532227 26.76620117 25.07532227 26.76620117 25.0625 28.1875 C25.05798828 29.12787109 25.05347656 30.06824219 25.04882812 31.03710938 C25.03704626 33.35813712 25.02059558 35.67903644 25 38 C24.34 37.34 23.68 36.68 23 36 C22.0409375 36.9590625 22.0409375 36.9590625 21.0625 37.9375 C17.08877335 40.61368325 13.77188374 41.35347287 9 41 C4.5464249 38.85568606 1.99832336 36.5225213 0 32 C-0.103125 30.824375 -0.20625 29.64875 -0.3125 28.4375 C-0.66697806 24.73731977 -0.66697806 24.73731977 -4 22.625 C-4.99 22.08875 -5.98 21.5525 -7 21 C-8 20 -8 20 -8.375 16.75 C-8 13 -8 13 -5.6875 10.0625 C-3 8 -3 8 0 8 C0 5.36 0 2.72 0 0 Z " fill="#5E5461" transform="translate(330,215)"/>
<path d="M0 0 C8.25905325 0.26219217 13.87696702 2.61614255 19.60546875 8.70703125 C24.73426535 15.3699547 25.61829083 22.71427676 25.5234375 30.95703125 C24.9368414 34.36716826 24.26276693 35.50614928 21.6875 37.75 C17.28361316 40.8151791 13.34014828 41.6230173 8 41 C4.72730487 38.89797249 1.7557965 36.511593 0 33 C-0.13415472 30.3276379 -0.04318541 27.67749512 0 25 C-0.94875 24.731875 -1.8975 24.46375 -2.875 24.1875 C-6 23 -6 23 -8 20 C-8.67065868 12.95808383 -8.67065868 12.95808383 -6.25 9.5 C-4 8 -4 8 0 8 C0 5.36 0 2.72 0 0 Z " fill="#5F5561" transform="translate(182,215)"/>
<path d="M0 0 C2 2 2 2 2.04345703 4.31567383 C1.94919434 5.26982178 1.85493164 6.22396973 1.7578125 7.20703125 C1.66081055 8.26164551 1.56380859 9.31625977 1.46386719 10.40283203 C1.35204102 11.52802246 1.24021484 12.65321289 1.125 13.8125 C0.92118472 16.11820074 0.7206224 18.42419152 0.5234375 20.73046875 C0.42901367 21.83052246 0.33458984 22.93057617 0.23730469 24.06396484 C-1.35938512 43.81889444 1.6544064 63.7707483 6 83 C6.37541536 84.69001195 6.75042613 86.38011384 7.125 88.0703125 C7.41653074 89.38023859 7.70814514 90.69014608 8 92 C4.11072941 88.61537749 2.14357985 84.87173168 -0.0625 80.3125 C-0.41393066 79.59497559 -0.76536133 78.87745117 -1.12744141 78.13818359 C-6.59397265 66.80237808 -9.39879448 55.50273228 -9.375 42.875 C-9.37338867 41.9670166 -9.37177734 41.0590332 -9.37011719 40.12353516 C-9.16272017 28.54793519 -6.0788919 18.07608111 -1.83203125 7.33203125 C-0.96599838 4.90469969 -0.44580753 2.5352489 0 0 Z " fill="#F2D8B2" transform="translate(141,329)"/>
<path d="M0 0 C3.11805846 1.13815721 5.9322425 2.67281237 8.8125 4.3125 C9.56208984 4.71662109 10.31167969 5.12074219 11.08398438 5.53710938 C17.73643513 9.19328204 17.73643513 9.19328204 20 12 C20.75471698 18.79245283 20.75471698 18.79245283 18.4375 22.5 C14.98891023 24.62220909 13.04230058 24.40263546 9 24 C5.57014839 22.67518323 2.40212747 20.96406968 -0.8125 19.1875 C-1.67037109 18.73568359 -2.52824219 18.28386719 -3.41210938 17.81835938 C-9.72130193 14.4180471 -9.72130193 14.4180471 -12 11 C-12.41857482 7.16306413 -12.54644269 4.88796936 -10.5 1.5625 C-7.03320298 -0.60424814 -3.93977472 -0.5664336 0 0 Z " fill="#5F5561" transform="translate(227,306)"/>
<path d="M0 0 C2.5 1.5625 2.5 1.5625 4 4 C4.5625 7.4375 4.5625 7.4375 4 11 C0.21020099 15.63033809 -4.11749558 17.87666826 -9.4375 20.3125 C-10.17548828 20.67150391 -10.91347656 21.03050781 -11.67382812 21.40039062 C-15.91546894 23.37982301 -19.22073623 24.59294304 -24 24 C-26.375 22.5 -26.375 22.5 -28 20 C-28.87078652 14.51404494 -28.87078652 14.51404494 -28 12 C-21.06377388 5.31297961 -9.9487354 -2.02659425 0 0 Z " fill="#5F5561" transform="translate(293,306)"/>
<path d="M0 0 C4.17446964 0.86968118 5.41688326 2.23065651 8 5.625 C8.74357228 9.06025987 8.79020097 12.43159627 8.8125 15.9375 C8.83763672 16.86884766 8.86277344 17.80019531 8.88867188 18.75976562 C8.94733752 21.04772595 8.97658184 23.33640749 9 25.625 C3.06 25.625 -2.88 25.625 -9 25.625 C-8.96692931 22.39309179 -8.89969057 19.16802245 -8.8125 15.9375 C-8.80669922 15.02548828 -8.80089844 14.11347656 -8.79492188 13.17382812 C-8.64371608 8.55365112 -8.5055136 6.28926994 -5.63671875 2.51953125 C-3 0.625 -3 0.625 0 0 Z " fill="#FD8086" transform="translate(256,412.375)"/>
<path d="M0 0 C3.72536415 2.61568121 4.83515672 4.0603933 5.625 8.5625 C5 12 5 12 2.9375 14.4375 C-0.73180427 16.38925759 -2.89713759 16.59677999 -7 16 C-9.4375 14.5 -9.4375 14.5 -11 12 C-11.80414661 7.95439643 -11.63828902 5.02126244 -9.4375 1.5 C-6.00863886 -0.61006839 -3.95779649 -0.62491523 0 0 Z " fill="#F7F7F7" transform="translate(185,223)"/>
<path d="M0 0 C2.22617565 0.46623679 3.86052038 0.9923077 5.875 2.0625 C7.53952406 5.28751536 7.49275169 8.51110693 6.875 12 C5.3125 14.5 5.3125 14.5 2.875 16 C-1.22786241 16.59677999 -3.39319573 16.38925759 -7.0625 14.4375 C-9.125 12 -9.125 12 -9.75 8.5625 C-9.125 5 -9.125 5 -7.125 2 C-4.03286597 -0.06142268 -3.47423301 -0.30768115 0 0 Z " fill="#F8F7F8" transform="translate(331.125,223)"/>
</svg>
