<?xml version="1.0" encoding="UTF-8"?>
<svg version="1.1" xmlns="http://www.w3.org/2000/svg" width="512" height="512">
<path d="M0 0 C4.3835368 4.05456593 5.39456368 8.9659972 6.75 14.5625 C6.97042969 15.41263672 7.19085938 16.26277344 7.41796875 17.13867188 C8.38019838 20.94874262 9 24.02929062 9 28 C9.8971875 27.63648437 10.794375 27.27296875 11.71875 26.8984375 C15.07540332 25.54268236 18.43912155 24.20527027 21.80517578 22.87304688 C23.256034 22.2959313 24.70497806 21.71397759 26.15185547 21.12695312 C28.24211597 20.27990063 30.33883531 19.45097446 32.4375 18.625 C33.07429688 18.36251465 33.71109375 18.1000293 34.3671875 17.82958984 C39.202642 15.95597689 42.90377045 15.35704239 48 16 C50.93892725 18.52361871 51.84400989 20.15579771 52.54589844 23.9543457 C52.5668457 25.01741943 52.58779297 26.08049316 52.609375 27.17578125 C52.64160156 28.33271484 52.67382812 29.48964844 52.70703125 30.68164062 C52.72121094 31.87982422 52.73539062 33.07800781 52.75 34.3125 C52.79447266 36.1387793 52.79447266 36.1387793 52.83984375 38.00195312 C52.91041823 41.00136833 52.96317864 44.0000117 53 47 C53.51272461 47.26103516 54.02544922 47.52207031 54.55371094 47.79101562 C69.22253603 55.29294051 82.44080219 63.22435691 95 74 C95.80953125 74.68578125 96.6190625 75.3715625 97.453125 76.078125 C117.50802712 93.54529781 130.79240065 114.57352697 143 138 C144.27617188 137.51660156 144.27617188 137.51660156 145.578125 137.0234375 C154.00448726 134.50322413 162.89231282 135.14744652 170.859375 138.796875 C172.80243923 139.88896219 174.44981379 141.05086151 176.1875 142.4375 C179.53819681 145.03745106 183.18505505 146.14865326 187.1875 147.375 C203.95370928 152.63300535 218.05250388 163.77963563 227 179 C236.05535341 196.52023828 240.24229634 217.81325391 234.16796875 237.1484375 C226.59326475 255.64186198 215.57189913 272.03873399 197 281 C192.38033358 282.83099561 187.72485744 284.45781636 183 286 C182.01 286.33 181.02 286.66 180 287 C180.47288452 288.22904053 180.47288452 288.22904053 180.95532227 289.48291016 C243.15541727 451.99530187 243.15541727 451.99530187 236 500 C234.4375 502.625 234.4375 502.625 232 504 C228.25373936 504.46828258 225.94055366 504.48233521 222.5625 502.75 C221 501 221 501 221 497 C194.27 497 167.54 497 140 497 C139.67 498.65 139.34 500.3 139 502 C136.03082597 503.97944936 135.34297721 504.29350581 132 504.3125 C131.319375 504.32925781 130.63875 504.34601563 129.9375 504.36328125 C127.3929152 503.8861716 126.64620331 502.9709323 125 501 C124.35571289 499.12841797 124.35571289 499.12841797 123.97265625 496.9921875 C123.74690918 495.77631958 123.74690918 495.77631958 123.51660156 494.53588867 C123.36674805 493.65779541 123.21689453 492.77970215 123.0625 491.875 C122.8984668 490.96661377 122.73443359 490.05822754 122.56542969 489.12231445 C120.54626901 477.77650885 118.763115 466.38796543 117 455 C115.98099609 455.66696899 115.98099609 455.66696899 114.94140625 456.34741211 C78.63032323 479.99682048 36.04781183 495.97596789 -7.73046875 496.203125 C-8.63534027 496.21009399 -9.54021179 496.21706299 -10.47250366 496.22424316 C-13.37755021 496.24155049 -16.28240404 496.24796308 -19.1875 496.25 C-20.17765106 496.25100708 -21.16780212 496.25201416 -22.18795776 496.25305176 C-36.35126224 496.24328406 -50.07981552 495.82041005 -64 493 C-65.6521873 492.69446526 -67.30453431 492.38979308 -68.95703125 492.0859375 C-79.21684562 490.12619768 -89.13022364 487.40198697 -99 484 C-100.23492187 483.58234375 -101.46984375 483.1646875 -102.7421875 482.734375 C-120.86935283 476.38928352 -138.05308712 467.66606346 -154 457 C-154.99 456.34 -155.98 455.68 -157 455 C-157.19634033 456.27641357 -157.39268066 457.55282715 -157.5949707 458.86791992 C-158.32773932 463.61265962 -159.0747024 468.35507436 -159.82592773 473.09692383 C-160.14880464 475.14775112 -160.4678524 477.19918514 -160.78295898 479.2512207 C-161.23711771 482.20432521 -161.70509913 485.15495851 -162.17578125 488.10546875 C-162.31341385 489.02023483 -162.45104645 489.93500092 -162.59284973 490.87748718 C-163.41078588 495.90788133 -164.24536161 500.24536161 -168 504 C-175.18740477 504.58913154 -175.18740477 504.58913154 -178.5 502.1875 C-180 500 -180 500 -180 497 C-206.73 497 -233.46 497 -261 497 C-261.33 498.65 -261.66 500.3 -262 502 C-265.7205836 504.48038907 -267.59796571 504.46337203 -272 504 C-274.4375 502.625 -274.4375 502.625 -276 500 C-277.28141275 490.87482506 -274.71747443 481.26539652 -273.0625 472.3125 C-272.90794342 471.46463928 -272.75338684 470.61677856 -272.59414673 469.7432251 C-261.24581332 407.71548892 -243.93296053 345.39979453 -220 287 C-220.72703125 286.78085937 -221.4540625 286.56171875 -222.203125 286.3359375 C-243.09135658 279.74811062 -258.79163038 267.99629664 -269.23828125 248.578125 C-276.96910034 232.87650575 -279.46627262 211.76257813 -274.171875 194.85546875 C-270.02718264 184.75623503 -265.36557961 175.16692739 -258 167 C-257.2575 166.12021484 -257.2575 166.12021484 -256.5 165.22265625 C-247.82178262 155.65492158 -235.98953162 150.1280829 -224 146 C-220.50704307 144.68624971 -217.51371966 143.43260603 -214.625 141 C-207.12340324 135.2844977 -198.11615625 135.17708789 -189 136 C-186.9793981 136.60134218 -184.97012048 137.24962027 -183 138 C-182.74943848 137.50298584 -182.49887695 137.00597168 -182.24072266 136.49389648 C-171.90698801 116.11933351 -159.79912971 98.5392979 -144 82 C-143.46648926 81.44022461 -142.93297852 80.88044922 -142.38330078 80.30371094 C-122.67043081 60.07134624 -95.81766053 45.95464446 -68.90625 38.15625 C-63.88942473 36.69006724 -60.13558478 35.53167732 -56.5625 31.5625 C-45.31543517 19.91450791 -17.52004262 -4.50611461 0 0 Z " fill="#020101" transform="translate(276,4)"/>
<path d="M0 0 C0.515625 0.16242188 1.03125 0.32484375 1.5625 0.4921875 C4.74201443 1.15458634 7.75371527 1.13187772 11 1.125 C12.216875 1.12757813 13.43375 1.13015625 14.6875 1.1328125 C17.34750011 1.02616155 19.48228971 0.79307874 22 0 C21.855625 0.78761719 21.71125 1.57523438 21.5625 2.38671875 C18.02332937 23.15476865 20.36372066 43.04425531 32 61 C37.08097108 67.82475916 42.69411634 74.00215225 48.70703125 80.0078125 C49.91609383 81.22330276 49.91609383 81.22330276 51.14958191 82.46334839 C52.84206056 84.16152562 54.53710541 85.85714885 56.23461914 87.55029297 C58.80438322 90.11689321 61.36051011 92.69655565 63.91601562 95.27734375 C82.63110408 114.29178756 82.63110408 114.29178756 106.93383789 124.12329102 C110.23795438 124.74449873 112.96901269 125.52102426 116 127 C118.8379361 131.43497073 119.92024379 135.88915396 121 141 C121.35707031 142.03382813 121.71414063 143.06765625 122.08203125 144.1328125 C126.87088825 164.30714626 122.63788611 184.82873967 112.11621094 202.26318359 C109.15972466 206.86345554 105.66938567 210.96098757 102 215 C101.19175781 215.93005859 101.19175781 215.93005859 100.3671875 216.87890625 C81.21976573 237.61392831 49.27416482 249.48408649 21.6652832 251.20825195 C18.19086723 251.30281595 14.72564819 251.32874693 11.25 251.3125 C9.40402222 251.30621582 9.40402222 251.30621582 7.52075195 251.29980469 C-1.70099309 251.1855433 -10.07462396 250.31288814 -19 248 C-20.27746094 247.69835937 -21.55492187 247.39671875 -22.87109375 247.0859375 C-30.93430197 245.08840555 -38.46220998 242.47898001 -46 239 C-47.47919922 238.33871094 -47.47919922 238.33871094 -48.98828125 237.6640625 C-71.79512112 226.95579268 -88.2965312 208.588934 -98.38671875 185.87890625 C-104.31461477 169.2183985 -103.23574205 147.20181361 -96.44921875 130.9765625 C-94.76552639 127.76740603 -93.97822044 126.9862528 -90.76953125 124.9609375 C-87.15660808 123.92867374 -83.72931267 123.41668298 -80 123 C-61.02459427 117.34207312 -46.97616645 100.17979904 -33.38012695 86.62036133 C-31.18039231 84.43042397 -28.97018839 82.25140767 -26.75976562 80.07226562 C-9.3604095 62.80569064 1.72538042 44.62775238 2.1875 19.5 C2.15729152 14.27997506 1.42694193 9.99429677 0 5 C-0.125 2 -0.125 2 0 0 Z " fill="#F7E8C5" transform="translate(245,202)"/>
<path d="M0 0 C0.19634033 0.74161377 0.39268066 1.48322754 0.5949707 2.24731445 C1.49030571 5.60528115 2.40119742 8.95883318 3.3125 12.3125 C3.62123047 13.47974609 3.92996094 14.64699219 4.24804688 15.84960938 C4.55419922 16.96787109 4.86035156 18.08613281 5.17578125 19.23828125 C5.59210815 20.7857605 5.59210815 20.7857605 6.0168457 22.36450195 C7.03706249 25.09935177 7.55487134 26.41725971 10 28 C14.71882432 28.57182846 18.06883417 27.4351203 22.38671875 25.59375 C23.57201172 25.09746094 24.75730469 24.60117187 25.97851562 24.08984375 C27.21515657 23.56062623 28.45148177 23.0306703 29.6875 22.5 C32.12615569 21.46196424 34.56814019 20.43273963 37.01171875 19.40625 C38.08897217 18.94541016 39.16622559 18.48457031 40.27612305 18.00976562 C43 17 43 17 46 17 C45.98259766 17.91495239 45.98259766 17.91495239 45.96484375 18.84838867 C45.93524988 21.62941939 45.96704585 24.4065359 46 27.1875 C45.98066406 28.14720703 45.96132813 29.10691406 45.94140625 30.09570312 C45.95795508 35.31518913 45.95795508 35.31518913 48.52685547 39.62670898 C50.62462698 40.9674586 52.72394599 41.99287732 55 43 C56.48445257 43.76958871 57.96620556 44.54440538 59.4453125 45.32421875 C60.20497314 45.70755371 60.96463379 46.09088867 61.74731445 46.48583984 C71.14278363 51.23422256 79.75227147 56.4605233 88 63 C88.57556641 63.45600586 89.15113281 63.91201172 89.74414062 64.38183594 C110.40707621 80.97825112 131.61208425 104.92025369 139 131 C138.48368468 133.77257129 137.60360685 135.92933304 136.48046875 138.5625 C134.54397309 143.63859076 134.4424363 148.61692456 134.3125 154 C134.27833984 154.96550781 134.24417969 155.93101562 134.20898438 156.92578125 C134.12727301 159.28373782 134.05787881 161.64135863 134 164 C132.89790073 163.07118797 131.79809344 162.13965605 130.69921875 161.20703125 C130.08651123 160.68858643 129.47380371 160.1701416 128.8425293 159.63598633 C127.068319 158.06066061 125.43679714 156.41548714 123.8125 154.6875 C109.03417241 139.81065023 90.04685143 130.82817751 69 130.75 C48.66733125 130.82085325 33.56353029 137.77581405 18.18359375 150.4609375 C14.77980983 153.24298391 11.14433094 155.42406114 7.32421875 157.58984375 C3.93288723 159.64744153 0.89271249 162.09035936 -2.1875 164.58203125 C-5.78190377 167.39403247 -8.81290254 167.45512184 -13.27734375 167.41015625 C-18.06565012 166.68881885 -21.29096702 163.95775076 -25 161 C-26.28922009 160.01761429 -27.58084575 159.03837648 -28.875 158.0625 C-29.52082031 157.56878906 -30.16664063 157.07507813 -30.83203125 156.56640625 C-33.33999387 154.75434677 -35.93385619 153.13169568 -38.5625 151.5 C-41.7438531 149.51817348 -44.59660263 147.57873083 -47.3125 145 C-61.17983281 132.5361081 -80.20530932 130.23490817 -98 131 C-120.8857649 132.88692997 -138.08208219 146.4669141 -153.390625 162.41796875 C-155 164 -155 164 -156 164 C-156.0093457 163.410979 -156.01869141 162.82195801 -156.02832031 162.21508789 C-156.08263875 159.49676984 -156.1661584 156.78006152 -156.25 154.0625 C-156.26417969 153.13630859 -156.27835937 152.21011719 -156.29296875 151.25585938 C-156.49980177 145.36111834 -157.60127674 141.25711166 -160.18847656 135.984375 C-161.42896705 132.95106973 -161.02410175 131.06817581 -160 128 C-158.90175755 125.44770697 -157.77248757 123.02296572 -156.5 120.5625 C-155.96814087 119.52186401 -155.96814087 119.52186401 -155.42553711 118.46020508 C-149.34267365 106.7212758 -142.76684681 95.96023957 -134 86 C-133.29230469 85.17113281 -132.58460938 84.34226562 -131.85546875 83.48828125 C-110.93649738 59.47857897 -83.46371261 42.65819483 -52.75 34.4375 C-45.94331286 32.57831618 -41.78218619 30.15081304 -37 25 C-28.12048179 16.59423657 -19.06330187 9.67461616 -8.5 3.5625 C-7.58190552 3.03052002 -7.58190552 3.03052002 -6.64526367 2.48779297 C-2.24810503 0 -2.24810503 0 0 0 Z " fill="#AE6D59" transform="translate(267,22)"/>
<path d="M0 0 C1.52947266 -0.01160156 1.52947266 -0.01160156 3.08984375 -0.0234375 C9.3913198 0.82117558 12.40816596 4.6040639 16.0625 9.375 C17.3525958 11.95519161 17.21075172 13.84286893 17.23950195 16.73242188 C17.25875481 18.41688416 17.25875481 18.41688416 17.27839661 20.13537598 C17.28578354 21.3591394 17.29317047 22.58290283 17.30078125 23.84375 C17.308853 25.10779663 17.31692474 26.37184326 17.32524109 27.67419434 C17.33910556 30.36437654 17.35011023 33.05443536 17.35766602 35.74462891 C17.36643017 38.46979808 17.38706465 41.19444127 17.41918945 43.91943359 C17.72855009 72.22506729 14.02359603 98.17243156 -3.234375 121.4765625 C-5.18401109 124.16520798 -5.18401109 124.16520798 -4.7578125 126.796875 C-4.52835938 127.56515625 -4.29890625 128.3334375 -4.0625 129.125 C-3.49948432 132.824013 -3.73411701 134.05210778 -5.765625 137.27734375 C-8.34243014 140.09523035 -10.70542861 142.33699943 -13.9375 144.375 C-16.36946627 144.4678876 -18.18655127 143.9695959 -20.53515625 143.37109375 C-25.17491937 143.37863808 -28.37136781 147.18915362 -31.8046875 150.0078125 C-44.06628033 159.27280658 -59.20541162 159.61196258 -73.9375 158.375 C-87.1913327 155.98326204 -98.46661951 146.46847932 -107.6640625 137.21484375 C-108.53719086 136.34791397 -109.41031921 135.48098419 -110.30990601 134.58778381 C-112.14160456 132.76314136 -113.96826255 130.93342594 -115.79003906 129.09887695 C-118.5468155 126.32826322 -121.32670038 123.58246325 -124.109375 120.83789062 C-137.3723966 107.63504702 -147.9229699 96.08557778 -151.9375 77.375 C-152.12699219 76.51648438 -152.31648438 75.65796875 -152.51171875 74.7734375 C-154.88536053 61.40264802 -151.07109304 47.32457127 -143.83203125 36.046875 C-135.97265186 24.96271932 -125.2486231 16.11145561 -111.9375 12.375 C-95.35287176 9.57783184 -77.88230334 11.06406743 -63.74584961 20.89990234 C-56.01996209 26.84072179 -49.30969676 33.80936592 -42.5 40.75 C-40.74548334 42.53223604 -38.98945149 44.3129152 -37.23045349 46.09072876 C-36.14581279 47.18753319 -35.06385582 48.28700011 -33.98500061 49.38949585 C-29.49154745 54.02804957 -29.49154745 54.02804957 -23.4375 55.75 C-20.00889912 55.71879742 -20.00889912 55.71879742 -18.23754883 53.90527344 C-16.30277606 50.13964245 -16.5741624 46.68797417 -16.63671875 42.515625 C-16.62907372 40.74218378 -16.62058331 38.96874605 -16.61132812 37.1953125 C-16.61353335 34.41280858 -16.62494034 31.6310045 -16.65258789 28.84863281 C-16.67342587 26.15358774 -16.6572066 23.46063026 -16.63671875 20.765625 C-16.65522385 19.94451233 -16.67372894 19.12339966 -16.6927948 18.27740479 C-16.61191037 11.83483405 -14.42463095 7.95378663 -9.9375 3.375 C-6.49405317 0.48098051 -4.53435545 -0.03430786 0 0 Z " fill="#F4DBB3" transform="translate(431.9375,155.625)"/>
<path d="M0 0 C4.54355359 5.19920563 4.97328407 9.19947266 4.94921875 15.86328125 C4.96005493 16.73456161 4.97089111 17.60584198 4.98205566 18.50352478 C5.02782097 22.21852361 5.03940647 25.93345137 5.05419922 29.64868164 C5.06989014 32.36630106 5.10288453 35.083337 5.13671875 37.80078125 C5.13369751 38.63940201 5.13067627 39.47802277 5.12756348 40.34205627 C5.172552 43.83213991 5.21953692 46.15717774 6.87695312 49.27514648 C8.57641843 51.02218037 8.57641843 51.02218037 11.60546875 51.578125 C21.60616438 50.96740544 32.7399326 34.53712697 39.24414062 27.76171875 C46.82444336 20.03677419 54.78940109 13.91430256 64.91796875 9.890625 C65.87445313 9.50132812 66.8309375 9.11203125 67.81640625 8.7109375 C75.5487233 6.03010551 83.47262362 6.59765944 91.54296875 6.765625 C92.42082031 6.78238281 93.29867187 6.79914063 94.203125 6.81640625 C106.05179697 7.56904422 118.83118338 15.46975832 126.79296875 23.953125 C136.30781996 35.53472668 142.59776556 49.581822 141.9296875 64.85546875 C139.23633053 85.12366006 130.05526544 98.5473715 115.8359375 112.80859375 C114.62687492 114.02764153 114.62687492 114.02764153 113.39338684 115.27131653 C111.70098728 116.97376231 110.00594155 118.67358136 108.30834961 120.37084961 C105.73680677 122.94677617 103.18171753 125.53830477 100.62695312 128.13085938 C98.96843022 129.79525025 97.30895609 131.45869391 95.6484375 133.12109375 C94.89910446 133.88479782 94.14977142 134.64850189 93.37773132 135.43534851 C81.52819298 147.18556838 67.02873756 154.6181724 50.23046875 155.078125 C33.87119335 154.75436751 21.99601744 147.98859012 10.54296875 136.765625 C9.92164063 136.16862793 9.3003125 135.57163086 8.66015625 134.95654297 C-7.29385921 119.61293542 -7.29385921 119.61293542 -12.45703125 110.765625 C-13.41609375 109.21488281 -13.41609375 109.21488281 -14.39453125 107.6328125 C-24.43734086 90.6767686 -28.57875294 71.88347046 -28.6953125 52.38671875 C-28.70338425 51.10128677 -28.71145599 49.8158548 -28.71977234 48.49147034 C-28.73472031 45.78085468 -28.7445987 43.07026449 -28.75219727 40.35961914 C-28.76329756 36.89734624 -28.7977716 33.4357096 -28.83736897 29.97366238 C-28.86985361 26.65304048 -28.8743117 23.3324872 -28.8828125 20.01171875 C-28.90032059 18.77409286 -28.91782867 17.53646698 -28.93586731 16.26133728 C-28.9161679 8.46271191 -28.22985426 4.82792293 -22.9296875 -0.87890625 C-15.30769283 -7.19186028 -7.13197008 -6.43740768 0 0 Z " fill="#F4DBB3" transform="translate(91.45703125,160.234375)"/>
<path d="M0 0 C7.625 0.875 7.625 0.875 11 2 C12.09643555 4.02978516 12.09643555 4.02978516 13.13671875 6.7890625 C13.54132324 7.85286133 13.94592773 8.91666016 14.36279297 10.01269531 C14.79994629 11.20475586 15.23709961 12.39681641 15.6875 13.625 C16.15759154 14.88643919 16.62781042 16.14783093 17.09814453 17.40917969 C21.73594504 29.94698175 26.05578393 42.59979188 30.375 55.25 C30.71711517 56.25025208 31.05923035 57.25050415 31.41171265 58.28106689 C35.56323313 70.44541942 39.48918453 82.63546912 43 95 C43.45052734 96.55533447 43.45052734 96.55533447 43.91015625 98.14208984 C50.98385287 122.58721714 57.13921129 147.21233882 62.3125 172.125 C62.47748993 172.90941467 62.64247986 173.69382935 62.81246948 174.50201416 C65.48268114 187.26049299 67.36962584 200.06965203 69 213 C58.45618688 213.02312343 47.91237975 213.04091509 37.36854649 213.05181217 C32.47314626 213.057041 27.57776332 213.06413864 22.68237305 213.07543945 C17.96212022 213.08626834 13.24188408 213.09227684 8.5216198 213.09487724 C6.71661046 213.09673149 4.91160208 213.10035209 3.10659981 213.10573006 C0.58740356 213.11294052 -1.9317229 213.11399094 -4.45092773 213.11352539 C-5.58164955 213.1189183 -5.58164955 213.1189183 -6.73521423 213.12442017 C-11.88594784 213.11405216 -11.88594784 213.11405216 -13 212 C-13.30000149 210.34362701 -13.54246044 208.67679368 -13.76171875 207.0078125 C-13.90778564 205.92846436 -14.05385254 204.84911621 -14.2043457 203.73706055 C-14.36378662 202.54508057 -14.52322754 201.35310059 -14.6875 200.125 C-18.3814975 173.58224291 -23.11920562 147.40321497 -29.23779297 121.3125 C-30.44655979 116.05928148 -31.54098146 110.78293962 -32.58251953 105.49414062 C-35.16480962 92.75695513 -39.02546798 80.24939797 -42.5625 67.75 C-43.33527706 65.01580588 -44.10738636 62.28142412 -44.87890625 59.546875 C-45.06192291 58.89835571 -45.24493958 58.24983643 -45.4335022 57.58166504 C-46.98807031 52.06318122 -48.50537729 46.53499128 -50 41 C-49.1028125 40.8040625 -48.205625 40.608125 -47.28125 40.40625 C-34.35435427 37.30806838 -18.24784222 32.17593797 -10 21 C-9.24713862 17.28634073 -9.24713862 17.28634073 -10 14 C-10 11 -10 11 -8.06640625 8.80859375 C-7.24011719 8.02613281 -6.41382813 7.24367188 -5.5625 6.4375 C-2.36158822 3.53104307 -2.36158822 3.53104307 0 0 Z " fill="#AE6D59" transform="translate(428,288)"/>
<path d="M0 0 C3.10056078 1.36279579 5.03699919 2.85844955 7.28515625 5.37890625 C7.89270752 6.04873535 8.50025879 6.71856445 9.1262207 7.40869141 C9.76519287 8.11944824 10.40416504 8.83020508 11.0625 9.5625 C25.18442767 24.92067342 40.05778444 35.54748724 61 39 C60.33467601 42.60189827 59.43597901 46.04947916 58.36328125 49.55078125 C58.03618164 50.63004883 57.70908203 51.70931641 57.37207031 52.82128906 C56.84758301 54.54943848 56.84758301 54.54943848 56.3125 56.3125 C52.76295869 68.13473686 49.65144384 80.01623035 46.75024414 92.01123047 C45.89591398 95.41465052 44.96900904 98.79509579 44.04296875 102.1796875 C41.89549746 110.18583343 40.19274729 118.25016994 38.5625 126.375 C38.2597688 127.86790523 37.95670382 129.36074282 37.65332031 130.85351562 C37.04823887 133.83507286 36.44597378 136.81717707 35.84619141 139.79980469 C35.08594083 143.57901665 34.31564543 147.35611964 33.54296875 151.1328125 C30.05554456 168.24752332 27.09910744 185.30762478 25.00146484 202.65087891 C24.88496582 203.59237793 24.7684668 204.53387695 24.6484375 205.50390625 C24.54708496 206.34767822 24.44573242 207.1914502 24.34130859 208.06079102 C24 210 24 210 23 211 C20.47458998 211.09504251 17.97662874 211.12557158 15.45092773 211.11352539 C14.26564987 211.11374443 14.26564987 211.11374443 13.056427 211.1139679 C10.43212178 211.11326857 7.80788664 211.10547527 5.18359375 211.09765625 C3.36898335 211.09579214 1.55437244 211.0943682 -0.26023865 211.09336853 C-5.0459023 211.08954279 -9.8315358 211.07971204 -14.6171875 211.06866455 C-19.49674064 211.05845163 -24.37629864 211.05387117 -29.25585938 211.04882812 C-38.83725286 211.03808982 -48.41862393 211.02101273 -58 211 C-56.43660229 198.71819559 -54.74808245 186.58011245 -52 174.5 C-51.7525 173.38109375 -51.505 172.2621875 -51.25 171.109375 C-50.75329829 168.86386934 -50.25342162 166.61906343 -49.75024414 164.375 C-48.98000891 160.91006939 -48.23512844 157.44046086 -47.49609375 153.96875 C-44.12627325 138.19176347 -40.64774288 122.45415567 -36 107 C-35.51484113 105.30658581 -35.03197863 103.61251288 -34.55078125 101.91796875 C-24.71874 67.44684394 -13.43545684 33.2348188 0 0 Z " fill="#AE6D59" transform="translate(73,290)"/>
<path d="M0 0 C0.68169426 -0.00467997 1.36338851 -0.00935994 2.06574017 -0.01418173 C4.35514499 -0.02616934 6.64395536 -0.01666021 8.93336487 -0.00723267 C10.57262014 -0.01129675 12.21187267 -0.01663771 13.85112 -0.02316284 C18.30774842 -0.03686281 22.76416896 -0.0315265 27.22080112 -0.02202559 C31.8807779 -0.01444156 36.54073664 -0.02147121 41.20071411 -0.02618408 C49.02813418 -0.03164585 56.8554694 -0.02443956 64.68287659 -0.01016235 C73.73573818 0.00615928 82.78839703 0.0008809 91.8412537 -0.01564157 C99.60863368 -0.02925125 107.37595259 -0.03117846 115.14334065 -0.02332556 C119.78467543 -0.01864546 124.4259149 -0.01803333 129.06724358 -0.02793503 C133.43145749 -0.03659468 137.79540986 -0.03060117 142.15959549 -0.01325226 C143.76240797 -0.00928181 145.36524242 -0.01043101 146.96804619 -0.01704025 C149.15412588 -0.02522421 151.33936468 -0.01497326 153.52539062 0 C154.74932242 0.00113108 155.97325422 0.00226215 157.23427486 0.00342751 C160.58601765 0.41267631 162.0009711 0.96153833 164.32618713 3.38095093 C166.31484978 15.87664222 163.14267324 29.3126861 157.32618713 40.38095093 C156.85567932 41.30391968 156.38517151 42.22688843 155.90040588 43.17782593 C145.92570161 61.55604 128.7469637 75.68451418 108.83692932 82.19491577 C103.38314595 83.80133664 97.87745252 85.15780276 92.32618713 86.38095093 C90.99394104 86.68645874 90.99394104 86.68645874 89.63478088 86.99813843 C67.25582189 90.7090318 42.37538383 83.76198347 23.99806213 71.14266968 C7.17998896 58.90942299 -5.09697583 42.21580044 -9.24021912 21.55673218 C-9.73767727 17.91318729 -9.87990781 14.37049898 -9.92381287 10.69345093 C-9.94959412 9.39020874 -9.97537537 8.08696655 -10.00193787 6.74423218 C-9.67381287 3.38095093 -9.67381287 3.38095093 -8.57041836 1.69455528 C-5.73400304 -0.26996898 -3.42674426 0.00316775 0 0 Z " fill="#020101" transform="translate(178.67381286621094,348.6190490722656)"/>
<path d="M0 0 C0.86996586 3.07909767 1.71815852 6.16378631 2.5625 9.25 C2.9327832 10.55904297 2.9327832 10.55904297 3.31054688 11.89453125 C3.53935547 12.73886719 3.76816406 13.58320312 4.00390625 14.453125 C4.21861572 15.22817383 4.4333252 16.00322266 4.65454102 16.80175781 C5.04048486 19.25761532 4.91567568 20.69414826 4 23 C1.93477577 24.53399603 -0.04324843 25.8305009 -2.25 27.125 C-16.71196271 36.02424089 -30.2589015 46.77148921 -41 60 C-41.80824219 60.97066406 -42.61648437 61.94132812 -43.44921875 62.94140625 C-59.65964475 82.71847939 -72.33590527 105.56805161 -80 130 C-79.01 130.33 -78.02 130.66 -77 131 C-77.85996582 130.98428955 -77.85996582 130.98428955 -78.73730469 130.96826172 C-106.01361982 130.53608585 -125.70753946 136.3905176 -146 155 C-148.50805649 157.43439329 -150.97057253 159.89634473 -153.390625 162.41796875 C-155 164 -155 164 -156 164 C-156.0093457 163.410979 -156.01869141 162.82195801 -156.02832031 162.21508789 C-156.08263875 159.49676984 -156.1661584 156.78006152 -156.25 154.0625 C-156.26417969 153.13630859 -156.27835937 152.21011719 -156.29296875 151.25585938 C-156.49980177 145.36111834 -157.60127674 141.25711166 -160.18847656 135.984375 C-161.42896705 132.95106973 -161.02410175 131.06817581 -160 128 C-158.90175755 125.44770697 -157.77248757 123.02296572 -156.5 120.5625 C-155.96814087 119.52186401 -155.96814087 119.52186401 -155.42553711 118.46020508 C-149.34267365 106.7212758 -142.76684681 95.96023957 -134 86 C-133.29230469 85.17113281 -132.58460938 84.34226562 -131.85546875 83.48828125 C-110.93649738 59.47857897 -83.46371261 42.65819483 -52.75 34.4375 C-45.94331286 32.57831618 -41.78218619 30.15081304 -37 25 C-28.12048179 16.59423657 -19.06330187 9.67461616 -8.5 3.5625 C-7.58190552 3.03052002 -7.58190552 3.03052002 -6.64526367 2.48779297 C-2.24810503 0 -2.24810503 0 0 0 Z " fill="#95594F" transform="translate(267,22)"/>
<path d="M0 0 C2.36634958 2.36634958 2.99804711 4.31569361 4.1875 7.4375 C15.52854373 35.19321228 40.11793626 54.24426463 67 65.75 C76.72250306 69.70763066 86.70957903 72.05059513 97 74 C98.11246094 74.226875 99.22492188 74.45375 100.37109375 74.6875 C135.98469192 80.96456014 175.95593277 72.74770575 205.8203125 52.28515625 C225.03011429 38.47958616 238.4784794 22.06538667 247 0 C249.78162755 2.78162755 250.09630436 5.92261497 250.91015625 9.6484375 C251.08252304 10.41620514 251.25488983 11.18397278 251.43247986 11.9750061 C251.79662792 13.60670904 252.15700245 15.23925795 252.51391602 16.87255859 C253.05331047 19.33308069 253.60870646 21.78957597 254.16601562 24.24609375 C258.5743012 43.94477122 258.5743012 43.94477122 258 50 C256.02734375 52.9375 256.02734375 52.9375 252.9375 55 C252.36749268 55.38969971 251.79748535 55.77939941 251.21020508 56.1809082 C249.17700275 57.52573875 247.10353648 58.76809717 245 60 C244.16791016 60.49032715 243.33582031 60.9806543 242.47851562 61.48583984 C231.01252421 68.14371432 219.28528241 74.02419239 207 79 C205.94296875 79.44730469 204.8859375 79.89460938 203.796875 80.35546875 C189.23923382 86.29922928 174.00432406 89.51684613 158.47460938 91.63574219 C156.71038307 91.89543296 154.95139545 92.19181791 153.19726562 92.51269531 C143.53188087 94.21709597 134.03394851 94.3962502 124.25 94.375 C123.39338776 94.37512085 122.53677551 94.3752417 121.65420532 94.37536621 C107.10319964 94.34623337 93.25249506 93.03891727 79 90 C77.40805864 89.69396766 75.81562902 89.39046118 74.22265625 89.08984375 C49.33849312 84.20365502 24.74403399 74.52581432 3.78857422 60.19384766 C1.99668689 58.99778855 0.16787409 57.89396178 -1.68359375 56.79296875 C-2.81146487 56.0727638 -3.93785273 55.35022891 -5.0625 54.625 C-6.53396484 53.71621094 -6.53396484 53.71621094 -8.03515625 52.7890625 C-10.78509631 48.88556906 -10.2442841 46.31456748 -9.64624023 41.67822266 C-8.4756618 35.01561035 -7.07384419 28.41654528 -5.56152344 21.82373047 C-4.99347957 19.34656526 -4.43722658 16.86696663 -3.8828125 14.38671875 C-3.52670943 12.80714098 -3.16996283 11.22770811 -2.8125 9.6484375 C-2.64580811 8.90894867 -2.47911621 8.16945984 -2.30737305 7.40756226 C-1.11736061 2.23472122 -1.11736061 2.23472122 0 0 Z " fill="#AC6C58" transform="translate(132,391)"/>
<path d="M0 0 C3.16950041 1.38776947 5.16479338 2.97614617 7.49609375 5.51953125 C8.45805664 6.55883789 8.45805664 6.55883789 9.43945312 7.61914062 C10.09880859 8.34294922 10.75816406 9.06675781 11.4375 9.8125 C12.74796188 11.23635485 14.05914455 12.65954671 15.37109375 14.08203125 C16.29897705 15.09064209 16.29897705 15.09064209 17.24560547 16.11962891 C19.44171917 18.47343739 21.70183056 20.74611128 24 23 C22.515 23.495 22.515 23.495 21 24 C20.8860791 24.99588135 20.7721582 25.9917627 20.65478516 27.01782227 C20.07174898 31.07308227 18.867501 34.85524881 17.5234375 38.71484375 C17.1542646 39.80136482 17.1542646 39.80136482 16.77763367 40.90983582 C16.25263346 42.45495243 15.7252239 43.9992522 15.19558716 45.54278564 C10.0418815 60.58281253 5.2652867 75.68200622 1 91 C0.54865217 92.59779053 0.09684627 94.19545175 -0.35546875 95.79296875 C-3.11310484 105.57897178 -5.71960752 115.40402211 -8.28027344 125.24316406 C-9.08007637 128.30672401 -9.88774895 131.36816447 -10.6953125 134.4296875 C-16.34889068 155.93240223 -21.21567154 177.3976876 -25.03344727 199.29736328 C-25.15702103 199.99888016 -25.28059479 200.70039703 -25.40791321 201.423172 C-25.74685591 203.35031493 -26.08108602 205.27828498 -26.41503906 207.20629883 C-27 210 -27 210 -28 211 C-30.21855264 211.08783542 -32.43988496 211.10694609 -34.66015625 211.09765625 C-35.65685585 211.09553383 -35.65685585 211.09553383 -36.6736908 211.09336853 C-38.80333899 211.08775518 -40.93288339 211.07520054 -43.0625 211.0625 C-44.50325369 211.05748671 -45.94400903 211.05292351 -47.38476562 211.04882812 C-50.92321102 211.03778145 -54.46159539 211.02050792 -58 211 C-56.16564831 195.23101175 -53.22266953 179.86127095 -49.75024414 164.375 C-48.98000891 160.91006939 -48.23512844 157.44046086 -47.49609375 153.96875 C-44.12627325 138.19176347 -40.64774288 122.45415567 -36 107 C-35.51484113 105.30658581 -35.03197863 103.61251288 -34.55078125 101.91796875 C-24.71874 67.44684394 -13.43545684 33.2348188 0 0 Z " fill="#95594F" transform="translate(73,290)"/>
<path d="M0 0 C4.54355359 5.19920563 4.97328407 9.19947266 4.94921875 15.86328125 C4.96005493 16.73456161 4.97089111 17.60584198 4.98205566 18.50352478 C5.02782097 22.21852361 5.03940647 25.93345137 5.05419922 29.64868164 C5.06989014 32.36630106 5.10288453 35.083337 5.13671875 37.80078125 C5.13369751 38.63940201 5.13067627 39.47802277 5.12756348 40.34205627 C5.172552 43.83213991 5.21953692 46.15717774 6.87695312 49.27514648 C8.57641843 51.02218037 8.57641843 51.02218037 11.60546875 51.578125 C21.60616438 50.96740544 32.7399326 34.53712697 39.24414062 27.76171875 C46.82444336 20.03677419 54.78940109 13.91430256 64.91796875 9.890625 C65.87445313 9.50132812 66.8309375 9.11203125 67.81640625 8.7109375 C73.00666062 6.91145103 77.82852251 6.60273098 83.29296875 6.640625 C84.35596191 6.64678833 84.35596191 6.64678833 85.44042969 6.65307617 C99.74383129 6.80527484 99.74383129 6.80527484 104.54296875 10.765625 C103.87394531 10.889375 103.20492187 11.013125 102.515625 11.140625 C89.00931154 14.04130977 76.39130238 20.24864903 65.54296875 28.765625 C64.72699219 29.38050781 63.91101563 29.99539062 63.0703125 30.62890625 C42.96772335 46.13306697 29.15178209 66.99409566 18.54296875 89.765625 C18.2579248 90.37438477 17.97288086 90.98314453 17.67919922 91.61035156 C11.64854909 104.63940217 8.18499268 117.54915466 6.54296875 131.765625 C-12.57328227 116.23367105 -25.00522416 92.44614274 -28.26223755 67.98519897 C-28.7172374 62.80070984 -28.6642201 57.58749967 -28.6953125 52.38671875 C-28.70338425 51.10128677 -28.71145599 49.8158548 -28.71977234 48.49147034 C-28.73472031 45.78085468 -28.7445987 43.07026449 -28.75219727 40.35961914 C-28.76329756 36.89734624 -28.7977716 33.4357096 -28.83736897 29.97366238 C-28.86985361 26.65304048 -28.8743117 23.3324872 -28.8828125 20.01171875 C-28.90032059 18.77409286 -28.91782867 17.53646698 -28.93586731 16.26133728 C-28.9161679 8.46271191 -28.22985426 4.82792293 -22.9296875 -0.87890625 C-15.30769283 -7.19186028 -7.13197008 -6.43740768 0 0 Z " fill="#E9C79F" transform="translate(91.45703125,160.234375)"/>
<path d="M0 0 C47.52 0 95.04 0 144 0 C141.64093353 12.97486561 141.64093353 12.97486561 138.5625 18.9375 C138.2226709 19.60845703 137.8828418 20.27941406 137.53271484 20.97070312 C133.82390157 27.91051721 128.87187493 33.78055562 123 39 C122.34 39 121.68 39 121 39 C119.703125 37.27734375 119.703125 37.27734375 118.25 34.9375 C109.71449125 21.85790746 97.52114466 13.36093448 82 10 C65.31891523 8.58303615 51.71419218 10.96791408 38 21 C37.34257812 21.47308594 36.68515625 21.94617188 36.0078125 22.43359375 C30.4703929 26.77739179 26.14045251 32.71909498 23 39 C14.58980197 35.40104138 9.57172295 26.90379419 5.5625 19.0625 C5.23282227 18.43134277 4.90314453 17.80018555 4.56347656 17.14990234 C1.71433835 11.27448514 1.25323081 6.89276948 0 0 Z " fill="#4A3E4D" transform="translate(184,364)"/>
<path d="M0 0 C11.83617002 3.73153028 20.57655282 13.07086631 26.23388672 23.87695312 C26.5898291 24.57755859 26.94577148 25.27816406 27.3125 26 C27.65039551 26.66451172 27.98829102 27.32902344 28.33642578 28.01367188 C34.27769874 40.25119005 34.82102996 54.10409309 31.0390625 67.12890625 C25.22726452 83.18782172 15.28581765 95.60931206 -0.328125 102.96875 C-5.0919886 104.8074342 -10.0118507 105.9458035 -15 107 C-16 104 -16 104 -14.7421875 101.0234375 C-14.12465674 99.80481409 -13.5018817 98.58883961 -12.875 97.375 C-8.86555327 89.18687664 -6.08507267 80.88083368 -4 72 C-3.612677 70.47608643 -3.612677 70.47608643 -3.2175293 68.92138672 C-0.1266044 55.10433222 -0.43618894 41.09520042 -0.3125 27 C-0.27926579 24.3749836 -0.24477068 21.74998285 -0.20898438 19.125 C-0.12478642 12.75010749 -0.05615025 6.37519807 0 0 Z " fill="#94594F" transform="translate(464,169)"/>
<path d="M0 0 C0.00586624 0.66382187 0.01173248 1.32764374 0.01777649 2.01158142 C0.0823821 9.00529777 0.16696229 15.99858206 0.26245117 22.99194336 C0.29543024 25.59181981 0.32354343 28.19176322 0.34643555 30.79174805 C0.57109722 55.6431529 3.40183079 77.44729087 13.86328125 100.109375 C15 103 15 103 15 107 C-0.86933555 103.64617135 -14.75991505 96.39453836 -24 82.625 C-31.86069076 68.99589189 -35.31885818 54.0315613 -32.31640625 38.453125 C-27.67367826 22.34806026 -18.64406685 9.8750235 -4.25 1.14453125 C-2 0 -2 0 0 0 Z " fill="#94594F" transform="translate(48,169)"/>
<path d="M0 0 C2.36634958 2.36634958 2.99804711 4.31569361 4.1875 7.4375 C8.86761264 18.89145989 16.15481108 29.92672063 25.5 38.125 C29.48459905 41.95634524 31.53896493 46.75301655 33.87670898 51.66894531 C39.06517854 62.49640638 46.01975429 72.25907833 53 82 C51 83 51 83 49.19091797 82.50610352 C48.46533691 82.21662842 47.73975586 81.92715332 46.9921875 81.62890625 C46.1782251 81.30599609 45.3642627 80.98308594 44.52563477 80.65039062 C43.65092529 80.29138672 42.77621582 79.93238281 41.875 79.5625 C40.97644287 79.19705078 40.07788574 78.83160156 39.15209961 78.45507812 C26.10212502 73.06640336 13.82370101 66.7399539 2 59 C0.83113355 58.30530874 -0.3381441 57.61130891 -1.5078125 56.91796875 C-2.63207915 56.19822645 -3.75454035 55.47565462 -4.875 54.75 C-5.88304688 54.12609375 -6.89109375 53.5021875 -7.9296875 52.859375 C-10.79484559 48.90221327 -10.27221482 46.41156314 -9.65283203 41.67382812 C-8.46953697 35.0148064 -7.07357796 28.41538467 -5.56152344 21.82373047 C-4.99347957 19.34656526 -4.43722658 16.86696663 -3.8828125 14.38671875 C-3.52670943 12.80714098 -3.16996283 11.22770811 -2.8125 9.6484375 C-2.64580811 8.90894867 -2.47911621 8.16945984 -2.30737305 7.40756226 C-1.11736061 2.23472122 -1.11736061 2.23472122 0 0 Z " fill="#94584F" transform="translate(132,391)"/>
<path d="M0 0 C5.46037336 4.65354207 9.58002072 9.79079782 13.1796875 15.98046875 C4.96659461 22.73257877 -5.44365553 24.77480528 -15.8203125 24.98046875 C-15.86929688 24.3771875 -15.91828125 23.77390625 -15.96875 23.15234375 C-16.04351562 22.353125 -16.11828125 21.55390625 -16.1953125 20.73046875 C-16.29972656 19.54710937 -16.29972656 19.54710937 -16.40625 18.33984375 C-16.841523 15.85960894 -17.50400941 14.120645 -18.8203125 11.98046875 C-21.61901277 10.58111862 -23.72530042 10.7278147 -26.8203125 10.98046875 C-29.44660275 12.97282687 -30.65663293 14.86098134 -31.13671875 18.14453125 C-31.21792969 18.95664062 -31.29914063 19.76875 -31.3828125 20.60546875 C-31.46660156 21.42273438 -31.55039063 22.24 -31.63671875 23.08203125 C-31.72759766 24.02175781 -31.72759766 24.02175781 -31.8203125 24.98046875 C-42.19093322 25.79385077 -51.84622055 21.9074212 -60.8203125 16.98046875 C-56.32541412 6.23179872 -49.0332858 0.03426556 -38.6171875 -4.92578125 C-25.89840438 -9.89960705 -11.00182247 -7.87803631 0 0 Z " fill="#E3626C" transform="translate(279.8203125,395.01953125)"/>
<path d="M0 0 C0.33 0 0.66 0 1 0 C1.01458252 1.03181396 1.02916504 2.06362793 1.04418945 3.12670898 C1.10321295 7.04287345 1.18041272 10.95852341 1.26245117 14.87426758 C1.29522108 16.55256655 1.32339298 18.23096312 1.34643555 19.90942383 C1.55459971 34.68907968 3.16028188 48.68995945 7.44921875 62.8984375 C8 65 8 65 8 68 C-1.17197058 65.42038327 -7.57855402 56.70595183 -12.2578125 48.90234375 C-14.99728426 43.31803593 -15.37881886 37.99157264 -15.4375 31.875 C-15.44765137 31.12299316 -15.45780273 30.37098633 -15.46826172 29.59619141 C-15.3144406 19.70614334 -11.0017395 11.28093063 -4.3125 4.125 C-3.549375 3.42375 -2.78625 2.7225 -2 2 C-1.34 1.34 -0.68 0.68 0 0 Z " fill="#D1AC8F" transform="translate(47,188)"/>
<path d="M0 0 C7.3583961 6.01704822 14.20303997 13.28750529 16 23 C16.77541163 32.63042094 16.92247301 41.39331582 12 50 C11.34644531 51.16595703 11.34644531 51.16595703 10.6796875 52.35546875 C6.54629265 59.09764559 0.8769679 65.78460278 -7 68 C-6.23954585 61.979738 -4.91394979 56.20215891 -3.4609375 50.31640625 C-3.20183594 49.24712891 -3.20183594 49.24712891 -2.9375 48.15625 C-2.78152344 47.52525391 -2.62554687 46.89425781 -2.46484375 46.24414062 C-1.21971754 40.2330061 -0.81573396 34.33610196 -0.68359375 28.22265625 C-0.66281265 27.41130722 -0.64203156 26.59995819 -0.62062073 25.76402283 C-0.55574357 23.19692661 -0.49653078 20.62973663 -0.4375 18.0625 C-0.39425582 16.31183964 -0.35063974 14.56118842 -0.30664062 12.81054688 C-0.2001265 8.54045829 -0.09868886 4.27027632 0 0 Z " fill="#E8C59D" transform="translate(464,188)"/>
<path d="M0 0 C1.9926072 2.55053721 2.08719411 4.78330852 2.19140625 7.96484375 C0.91172748 12.10591604 -3.15679866 13.83499993 -6.70703125 15.921875 C-18.92867317 22.22808053 -18.92867317 22.22808053 -25.4375 21 C-27.4375 19.9375 -27.4375 19.9375 -28.4375 18 C-28.9375 14.625 -28.9375 14.625 -28.4375 11 C-24.98837153 6.9161806 -21.31204171 4.57266372 -16.5625 2.1875 C-15.38945312 1.58292969 -14.21640625 0.97835938 -13.0078125 0.35546875 C-8.44864304 -1.37541943 -4.57616462 -1.87740087 0 0 Z " fill="#050504" transform="translate(293.4375,302)"/>
<path d="M0 0 C2.55943765 1.25885661 5.0619315 2.59208546 7.56152344 3.96582031 C8.43228516 4.42601562 9.30304688 4.88621094 10.20019531 5.36035156 C16.60643282 8.80563908 16.60643282 8.80563908 17.74902344 11.09082031 C18.19523858 17.22627848 18.19523858 17.22627848 16.74902344 20.02832031 C13.5203424 21.74355711 10.2817506 21.57328165 6.74902344 21.09082031 C3.60934259 19.93404112 0.77417366 18.37450272 -2.12597656 16.71582031 C-2.88394531 16.30332031 -3.64191406 15.89082031 -4.42285156 15.46582031 C-9.8937097 12.44808718 -9.8937097 12.44808718 -12.25097656 10.09082031 C-12.93294378 2.93016457 -12.93294378 2.93016457 -10.62597656 0.09082031 C-6.83956351 -1.50345887 -3.85872392 -1.55855617 0 0 Z " fill="#030302" transform="translate(229.2509765625,301.9091796875)"/>
</svg>
